<?xml version="1.0" standalone="no"?>
<!DOCTYPE svg PUBLIC "-//W3C//DTD SVG 20010904//EN"
 "http://www.w3.org/TR/2001/REC-SVG-20010904/DTD/svg10.dtd">
<svg version="1.0" xmlns="http://www.w3.org/2000/svg"
 width="512.000000pt" height="512.000000pt" viewBox="0 0 512.000000 512.000000"
 preserveAspectRatio="xMidYMid meet">

<g transform="translate(0.000000,512.000000) scale(0.100000,-0.100000)"
fill="#000000" stroke="none">
<path d="M2365 5113 c-935 -78 -1742 -637 -2126 -1474 -104 -226 -180 -488
-216 -744 -20 -140 -22 -513 -4 -645 34 -255 109 -523 207 -743 183 -412 524
-815 912 -1076 624 -419 1401 -537 2140 -325 380 109 694 284 1007 564 758
675 1030 1775 683 2756 -53 152 -184 410 -278 550 -181 270 -428 519 -700 706
-338 233 -763 385 -1194 427 -101 10 -335 12 -431 4z m875 -690 c420 -156 773
-447 1020 -843 209 -334 314 -763 282 -1157 -21 -260 -77 -470 -186 -698 -134
-279 -330 -523 -573 -714 -74 -58 -230 -161 -244 -161 -6 0 -21 12 -33 27 -19
25 -197 239 -1105 1328 -128 154 -265 318 -305 365 l-71 85 -5 -1005 c-5 -998
-5 -1005 -25 -1002 -41 7 -199 73 -307 128 -560 287 -957 799 -1084 1399 -21
97 -27 159 -31 323 -9 313 26 518 134 782 107 261 225 440 433 654 155 160
446 376 469 350 12 -14 279 -338 461 -559 90 -110 207 -252 260 -315 144 -173
520 -626 650 -784 l115 -140 3 993 2 992 23 -6 c12 -4 65 -23 117 -42z"/>
<path d="M3790 2565 l1 -1090 45 50 c154 172 295 456 345 695 102 489 -26 981
-363 1401 l-28 34 0 -1090z"/>
<path d="M1269 3578 c-166 -199 -286 -456 -341 -730 -32 -162 -32 -414 1 -578
32 -159 71 -274 140 -415 52 -105 159 -269 236 -360 l25 -30 0 1088 c0 598 -2
1087 -5 1087 -2 0 -28 -28 -56 -62z"/>
</g>
</svg>
